
<svg width="398px" height="91px" viewBox="0 0 398 91" version="1.1" xmlns="http://www.w3.org/2000/svg" xmlns:xlink="http://www.w3.org/1999/xlink">
    <!-- Generator: Sketch 51.3 (57544) - http://www.bohemiancoding.com/sketch -->
    <desc>Created with Sketch.</desc>
    <defs></defs>
    <g id="Page-1" stroke="none" stroke-width="1" fill="none" fill-rule="evenodd">
        <g id="outlined-logo" transform="translate(3.000000, 2.000000)">
            <g id="symbol" transform="translate(0.000000, 1.000000)">
                <g id="circle-and-body">
                    <circle id="Oval-2" stroke="#2D89EF" stroke-width="4.5" cx="42.5" cy="42.5" r="42.5"></circle>
                    <path d="M11.5648109,71.6423074 C16.9187269,70.4745446 22.4802697,69.8591549 28.1861548,69.8591549 C41.3145911,69.8591549 53.678886,73.1169983 64.508196,78.8651012 C58.0887647,82.7584838 50.5561494,85 42.5,85 C30.3079204,85 19.3149137,79.8661588 11.5648109,71.6423074 Z" id="Combined-Shape" fill="#2D89EF"></path>
                </g>
                <g id="head" transform="translate(42.947736, 38.997261) rotate(-354.000000) translate(-42.947736, -38.997261) translate(13.947736, 8.997261)" fill="#2D89EF" fill-rule="nonzero">
                    <g id="face" transform="translate(0.000000, 15.705565)">
                        <path d="M9.6936296,34.7643095 C16.1572874,37.1275497 22.5864411,38.3023322 29,38.3023322 C35.4135589,38.3023322 41.8427126,37.1275497 48.3063704,34.7643094 L48.3063704,8.53012571 C41.8427126,6.16688556 35.4135589,4.99210305 29,4.99210305 C22.5864411,4.99210305 16.1572874,6.16688556 9.69362961,8.53012578 L9.6936296,34.7643095 Z M4.85568918,5.09346297 C12.9037928,1.69782099 20.9518964,2.27373675e-13 29,2.27373675e-13 C37.0481036,2.27373675e-13 45.0962072,1.69782099 53.1443108,5.09346297 L53.1443108,38.2009722 C45.0962072,41.5966142 37.0481036,43.2944352 29,43.2944352 C20.9518964,43.2944352 12.9037928,41.5966142 4.85568918,38.2009722 L4.85568918,5.09346297 Z" id="Rectangle"></path>
                        <path d="M19.7446809,19.5676787 L15.9768507,21.5116254 C14.6863379,22.1774431 13.1170869,21.6376912 12.4718305,20.3060558 C11.8265741,18.9744203 12.3496578,17.3551646 13.6401706,16.6893469 L18.5763408,14.1426154 C19.3118279,13.7631535 20.1775338,13.7631535 20.9130209,14.1426154 L25.8491911,16.6893469 C27.139704,17.3551646 27.6627876,18.9744203 27.0175312,20.3060558 C26.3722748,21.6376912 24.8030238,22.1774431 23.512511,21.5116254 L19.7446809,19.5676787 Z" id="Path-3"></path>
                        <path d="M34.4130671,21.0761087 C33.1225543,21.7419264 31.5533033,21.2021745 30.9080469,19.870539 C30.2627905,18.5389036 30.7858742,16.9196478 32.076387,16.2538301 L37.0125572,13.7070986 C37.7480443,13.3276368 38.6137502,13.3276368 39.3492374,13.7070986 L44.2854076,16.2538301 C45.5759204,16.9196478 46.099004,18.5389036 45.4537476,19.870539 C44.8084912,21.2021745 43.2392402,21.7419264 41.9487274,21.0761087 L38.1808973,19.132162 L34.4130671,21.0761087 Z" id="Path-3"></path>
                        <polygon id="Line" points="0.625895652 14.694386 5.46383608 14.694386 5.46383608 28.6000492 0.625895652 28.6000492"></polygon>
                        <polygon id="Line" points="52.5361639 14.694386 57.3741043 14.694386 57.3741043 28.6000492 52.5361639 28.6000492"></polygon>
                    </g>
                    <g id="hat" transform="translate(38.416753, 11.022436) rotate(9.000000) translate(-38.416753, -11.022436) translate(22.916753, 2.522436)">
                        <path d="M5.88682746,16.7940511 C5.26592592,16.7940511 4.69711861,16.4454655 4.41315053,15.8909288 L0.539310083,8.32604089 C-0.0278614503,7.21846067 0.772855826,5.90061254 2.01298701,5.90061254 L29.1298701,5.90061254 C30.3700013,5.90061254 31.1707186,7.21846067 30.6035471,8.32604089 L26.7297066,15.8909288 C26.4457385,16.4454655 25.8769312,16.7940511 25.2560297,16.7940511 L5.88682746,16.7940511 Z M24.2448251,13.4655004 L26.4141758,9.22916321 L4.72868135,9.22916321 L6.898032,13.4655004 L24.2448251,13.4655004 Z" id="Path-4"></path>
                        <path d="M26.1168831,9.07786545 L23.1038961,9.07786545 C23.1038961,5.80272047 19.786058,3.02595515 15.5714286,3.02595515 C11.3567992,3.02595515 8.03896104,5.80272047 8.03896104,9.07786545 L5.02597403,9.07786545 C5.02597403,3.99706601 9.80189728,0 15.5714286,0 C21.3409599,0 26.1168831,3.99706601 26.1168831,9.07786545 Z" id="Oval-4"></path>
                    </g>
                </g>
            </g>
            <path d="M136.776,37.688 C136.477332,38.0506685 136.189335,38.3386656 135.912,38.552 C135.634665,38.7653344 135.240003,38.872 134.728,38.872 C134.237331,38.872 133.794669,38.7546678 133.4,38.52 C133.005331,38.2853322 132.562669,38.0240014 132.072,37.736 C131.581331,37.4479986 131.005337,37.1866678 130.344,36.952 C129.682663,36.7173322 128.861338,36.6 127.88,36.6 C126.663994,36.6 125.613338,36.8239978 124.728,37.272 C123.842662,37.7200022 123.112003,38.3599958 122.536,39.192 C121.959997,40.0240042 121.533335,41.0426606 121.256,42.248 C120.978665,43.4533394 120.84,44.8133258 120.84,46.328 C120.84,49.5066826 121.453327,51.9493248 122.68,53.656 C123.906673,55.3626752 125.597323,56.216 127.752,56.216 C128.904006,56.216 129.815997,56.0720014 130.488,55.784 C131.160003,55.4959986 131.730664,55.1760018 132.2,54.824 C132.669336,54.4719982 133.101331,54.1466682 133.496,53.848 C133.890669,53.5493318 134.386664,53.4 134.984,53.4 C135.773337,53.4 136.370665,53.6879971 136.776,54.264 L139.656,57.816 C138.631995,58.9893392 137.554672,59.9439963 136.424,60.68 C135.293328,61.4160037 134.136006,61.9919979 132.952,62.408 C131.767994,62.8240021 130.578673,63.1119992 129.384,63.272 C128.189327,63.4320008 127.026672,63.512 125.896,63.512 C123.869323,63.512 121.933343,63.1280038 120.088,62.36 C118.242657,61.5919962 116.62134,60.4773406 115.224,59.016 C113.82666,57.5546594 112.717337,55.757344 111.896,53.624 C111.074663,51.490656 110.664,49.0586803 110.664,46.328 C110.664,43.9386547 111.02133,41.7040104 111.736,39.624 C112.45067,37.5439896 113.50666,35.741341 114.904,34.216 C116.30134,32.690659 118.029323,31.490671 120.088,30.616 C122.146677,29.741329 124.530653,29.304 127.24,29.304 C129.84268,29.304 132.125324,29.7199958 134.088,30.552 C136.050676,31.3840042 137.821325,32.599992 139.4,34.2 L136.776,37.688 Z M158.728,29.304 C161.245346,29.304 163.538656,29.6986627 165.608,30.488 C167.677344,31.2773373 169.453326,32.4079926 170.936,33.88 C172.418674,35.3520074 173.570663,37.1386562 174.392,39.24 C175.213337,41.3413438 175.624,43.7039869 175.624,46.328 C175.624,48.9733466 175.213337,51.3573227 174.392,53.48 C173.570663,55.6026773 172.418674,57.4053259 170.936,58.888 C169.453326,60.3706741 167.677344,61.511996 165.608,62.312 C163.538656,63.112004 161.245346,63.512 158.728,63.512 C156.189321,63.512 153.88001,63.112004 151.8,62.312 C149.71999,61.511996 147.928008,60.3706741 146.424,58.888 C144.919992,57.4053259 143.757337,55.6026773 142.936,53.48 C142.114663,51.3573227 141.704,48.9733466 141.704,46.328 C141.704,43.7039869 142.114663,41.3413438 142.936,39.24 C143.757337,37.1386562 144.919992,35.3520074 146.424,33.88 C147.928008,32.4079926 149.71999,31.2773373 151.8,30.488 C153.88001,29.6986627 156.189321,29.304 158.728,29.304 Z M158.728,56.152 C161.010678,56.152 162.690661,55.3466747 163.768,53.736 C164.845339,52.1253253 165.384,49.6773498 165.384,46.392 C165.384,43.1066502 164.845339,40.664008 163.768,39.064 C162.690661,37.463992 161.010678,36.664 158.728,36.664 C156.381322,36.664 154.664005,37.463992 153.576,39.064 C152.487995,40.664008 151.944,43.1066502 151.944,46.392 C151.944,49.6773498 152.487995,52.1253253 153.576,53.736 C154.664005,55.3466747 156.381322,56.152 158.728,56.152 Z M195.848,29.304 C198.365346,29.304 200.658656,29.6986627 202.728,30.488 C204.797344,31.2773373 206.573326,32.4079926 208.056,33.88 C209.538674,35.3520074 210.690663,37.1386562 211.512,39.24 C212.333337,41.3413438 212.744,43.7039869 212.744,46.328 C212.744,48.9733466 212.333337,51.3573227 211.512,53.48 C210.690663,55.6026773 209.538674,57.4053259 208.056,58.888 C206.573326,60.3706741 204.797344,61.511996 202.728,62.312 C200.658656,63.112004 198.365346,63.512 195.848,63.512 C193.309321,63.512 191.00001,63.112004 188.92,62.312 C186.83999,61.511996 185.048008,60.3706741 183.544,58.888 C182.039992,57.4053259 180.877337,55.6026773 180.056,53.48 C179.234663,51.3573227 178.824,48.9733466 178.824,46.328 C178.824,43.7039869 179.234663,41.3413438 180.056,39.24 C180.877337,37.1386562 182.039992,35.3520074 183.544,33.88 C185.048008,32.4079926 186.83999,31.2773373 188.92,30.488 C191.00001,29.6986627 193.309321,29.304 195.848,29.304 Z M195.848,56.152 C198.130678,56.152 199.810661,55.3466747 200.888,53.736 C201.965339,52.1253253 202.504,49.6773498 202.504,46.392 C202.504,43.1066502 201.965339,40.664008 200.888,39.064 C199.810661,37.463992 198.130678,36.664 195.848,36.664 C193.501322,36.664 191.784005,37.463992 190.696,39.064 C189.607995,40.664008 189.064,43.1066502 189.064,46.392 C189.064,49.6773498 189.607995,52.1253253 190.696,53.736 C191.784005,55.3466747 193.501322,56.152 195.848,56.152 Z M228.424,15.096 L228.424,63 L218.504,63 L218.504,15.096 L228.424,15.096 Z M251.208,29.304 C253.725346,29.304 256.018656,29.6986627 258.088,30.488 C260.157344,31.2773373 261.933326,32.4079926 263.416,33.88 C264.898674,35.3520074 266.050663,37.1386562 266.872,39.24 C267.693337,41.3413438 268.104,43.7039869 268.104,46.328 C268.104,48.9733466 267.693337,51.3573227 266.872,53.48 C266.050663,55.6026773 264.898674,57.4053259 263.416,58.888 C261.933326,60.3706741 260.157344,61.511996 258.088,62.312 C256.018656,63.112004 253.725346,63.512 251.208,63.512 C248.669321,63.512 246.36001,63.112004 244.28,62.312 C242.19999,61.511996 240.408008,60.3706741 238.904,58.888 C237.399992,57.4053259 236.237337,55.6026773 235.416,53.48 C234.594663,51.3573227 234.184,48.9733466 234.184,46.328 C234.184,43.7039869 234.594663,41.3413438 235.416,39.24 C236.237337,37.1386562 237.399992,35.3520074 238.904,33.88 C240.408008,32.4079926 242.19999,31.2773373 244.28,30.488 C246.36001,29.6986627 248.669321,29.304 251.208,29.304 Z M251.208,56.152 C253.490678,56.152 255.170661,55.3466747 256.248,53.736 C257.325339,52.1253253 257.864,49.6773498 257.864,46.392 C257.864,43.1066502 257.325339,40.664008 256.248,39.064 C255.170661,37.463992 253.490678,36.664 251.208,36.664 C248.861322,36.664 247.144005,37.463992 246.056,39.064 C244.967995,40.664008 244.424,43.1066502 244.424,46.392 C244.424,49.6773498 244.967995,52.1253253 246.056,53.736 C247.144005,55.3466747 248.861322,56.152 251.208,56.152 Z M273.544,73.528 L273.544,29.816 L279.688,29.816 C280.30667,29.816 280.823998,29.9546653 281.24,30.232 C281.656002,30.5093347 281.949332,30.9253306 282.12,31.48 L282.856,33.912 C283.496003,33.2079965 284.183996,32.5680029 284.92,31.992 C285.656004,31.4159971 286.445329,30.9200021 287.288,30.504 C288.130671,30.0879979 289.037328,29.7626678 290.008,29.528 C290.978672,29.2933322 292.039994,29.176 293.192,29.176 C294.920009,29.176 296.519993,29.5599962 297.992,30.328 C299.464007,31.0960038 300.733328,32.2053261 301.8,33.656 C302.866672,35.1066739 303.703997,36.8826562 304.312,38.984 C304.920003,41.0853438 305.224,43.46932 305.224,46.136 C305.224,48.6320125 304.877337,50.9359894 304.184,53.048 C303.490663,55.1600106 302.520006,56.9946589 301.272,58.552 C300.023994,60.1093411 298.530675,61.325329 296.792,62.2 C295.053325,63.074671 293.128011,63.512 291.016,63.512 C289.287991,63.512 287.837339,63.2666691 286.664,62.776 C285.490661,62.2853309 284.424005,61.6240042 283.464,60.792 L283.464,73.528 L273.544,73.528 Z M289.736,36.76 C289.010663,36.76 288.35467,36.8293326 287.768,36.968 C287.18133,37.1066674 286.637336,37.3039987 286.136,37.56 C285.634664,37.8160013 285.170669,38.1413314 284.744,38.536 C284.317331,38.9306686 283.890669,39.3839974 283.464,39.896 L283.464,53.976 C284.21067,54.8080042 285.021329,55.3893317 285.896,55.72 C286.770671,56.0506683 287.687995,56.216 288.648,56.216 C289.565338,56.216 290.407996,56.0346685 291.176,55.672 C291.944004,55.3093315 292.610664,54.728004 293.176,53.928 C293.741336,53.127996 294.183998,52.0880064 294.504,50.808 C294.824002,49.5279936 294.984,47.9706758 294.984,46.136 C294.984,44.3866579 294.856001,42.9146726 294.6,41.72 C294.343999,40.5253274 293.986669,39.5600037 293.528,38.824 C293.069331,38.0879963 292.520003,37.5600016 291.88,37.24 C291.239997,36.9199984 290.525337,36.76 289.736,36.76 Z M330.824,37.08 C330.567999,37.4853354 330.296001,37.7733325 330.008,37.944 C329.719999,38.1146675 329.352002,38.2 328.904,38.2 C328.434664,38.2 327.965336,38.0986677 327.496,37.896 C327.026664,37.6933323 326.520003,37.4746678 325.976,37.24 C325.431997,37.0053322 324.81867,36.7866677 324.136,36.584 C323.45333,36.3813323 322.674671,36.28 321.8,36.28 C320.541327,36.28 319.576003,36.5199976 318.904,37 C318.231997,37.4800024 317.896,38.1466624 317.896,39 C317.896,39.6186698 318.114664,40.1306646 318.552,40.536 C318.989336,40.9413354 319.570663,41.2986651 320.296,41.608 C321.021337,41.9173349 321.842662,42.2106653 322.76,42.488 C323.677338,42.7653347 324.615995,43.074665 325.576,43.416 C326.536005,43.757335 327.474662,44.157331 328.392,44.616 C329.309338,45.074669 330.130663,45.6399966 330.856,46.312 C331.581337,46.9840034 332.162664,47.7999952 332.6,48.76 C333.037336,49.7200048 333.256,50.8719933 333.256,52.216 C333.256,53.8586749 332.957336,55.3733264 332.36,56.76 C331.762664,58.1466736 330.872006,59.3413283 329.688,60.344 C328.503994,61.3466717 327.042675,62.1253306 325.304,62.68 C323.565325,63.2346694 321.565345,63.512 319.304,63.512 C318.173328,63.512 317.042672,63.4053344 315.912,63.192 C314.781328,62.9786656 313.688005,62.6906685 312.632,62.328 C311.575995,61.9653315 310.600004,61.5333358 309.704,61.032 C308.807996,60.5306642 308.040003,59.9920029 307.4,59.416 L309.704,55.768 C309.981335,55.3413312 310.311998,55.0053346 310.696,54.76 C311.080002,54.5146654 311.58133,54.392 312.2,54.392 C312.776003,54.392 313.293331,54.5199987 313.752,54.776 C314.210669,55.0320013 314.706664,55.3093318 315.24,55.608 C315.773336,55.9066682 316.39733,56.1839987 317.112,56.44 C317.82667,56.6960013 318.727995,56.824 319.816,56.824 C320.584004,56.824 321.234664,56.7440008 321.768,56.584 C322.301336,56.4239992 322.727998,56.2053347 323.048,55.928 C323.368002,55.6506653 323.602666,55.341335 323.752,55 C323.901334,54.658665 323.976,54.3066685 323.976,53.944 C323.976,53.2826634 323.752002,52.7386688 323.304,52.312 C322.855998,51.8853312 322.269337,51.5173349 321.544,51.208 C320.818663,50.8986651 319.992005,50.610668 319.064,50.344 C318.135995,50.077332 317.192005,49.773335 316.232,49.432 C315.271995,49.090665 314.328005,48.6800024 313.4,48.2 C312.471995,47.7199976 311.645337,47.1120037 310.92,46.376 C310.194663,45.6399963 309.608002,44.738672 309.16,43.672 C308.711998,42.605328 308.488,41.3146742 308.488,39.8 C308.488,38.391993 308.759997,37.0533397 309.304,35.784 C309.848003,34.5146603 310.663995,33.4000048 311.752,32.44 C312.840005,31.4799952 314.205325,30.7173362 315.848,30.152 C317.490675,29.5866638 319.410656,29.304 321.608,29.304 C322.802673,29.304 323.959994,29.4106656 325.08,29.624 C326.200006,29.8373344 327.250662,30.1359981 328.232,30.52 C329.213338,30.9040019 330.109329,31.3573307 330.92,31.88 C331.730671,32.4026693 332.44533,32.9733302 333.064,33.592 L330.824,37.08 Z M338.216,60.536 C338.216,60.1306646 338.290666,59.7466685 338.44,59.384 C338.589334,59.0213315 338.797332,58.706668 339.064,58.44 C339.330668,58.173332 339.639998,57.9600008 339.992,57.8 C340.344002,57.6399992 340.733331,57.56 341.16,57.56 C341.565335,57.56 341.949332,57.6399992 342.312,57.8 C342.674668,57.9600008 342.989332,58.173332 343.256,58.44 C343.522668,58.706668 343.735999,59.0213315 343.896,59.384 C344.056001,59.7466685 344.136,60.1306646 344.136,60.536 C344.136,60.9626688 344.056001,61.3519982 343.896,61.704 C343.735999,62.0560018 343.522668,62.365332 343.256,62.632 C342.989332,62.898668 342.674668,63.1066659 342.312,63.256 C341.949332,63.4053341 341.565335,63.48 341.16,63.48 C340.327996,63.48 339.629336,63.1973362 339.064,62.632 C338.498664,62.0666638 338.216,61.3680042 338.216,60.536 Z M356.616,31.16 L356.616,63 L353.576,63 L353.576,31.16 L356.616,31.16 Z M357.96,20.184 C357.96,20.5680019 357.880001,20.9253317 357.72,21.256 C357.559999,21.5866683 357.352001,21.8799987 357.096,22.136 C356.839999,22.3920013 356.541335,22.5946659 356.2,22.744 C355.858665,22.8933341 355.496002,22.968 355.112,22.968 C354.727998,22.968 354.365335,22.8933341 354.024,22.744 C353.682665,22.5946659 353.384001,22.3920013 353.128,22.136 C352.871999,21.8799987 352.669334,21.5866683 352.52,21.256 C352.370666,20.9253317 352.296,20.5680019 352.296,20.184 C352.296,19.7999981 352.370666,19.4320018 352.52,19.08 C352.669334,18.7279982 352.871999,18.4240013 353.128,18.168 C353.384001,17.9119987 353.682665,17.7093341 354.024,17.56 C354.365335,17.4106659 354.727998,17.336 355.112,17.336 C355.496002,17.336 355.858665,17.4106659 356.2,17.56 C356.541335,17.7093341 356.839999,17.9119987 357.096,18.168 C357.352001,18.4240013 357.559999,18.7279982 357.72,19.08 C357.880001,19.4320018 357.96,19.7999981 357.96,20.184 Z M380.008,30.648 C382.290678,30.648 384.333324,31.0373294 386.136,31.816 C387.938676,32.5946706 389.45866,33.6986595 390.696,35.128 C391.93334,36.5573405 392.87733,38.2799899 393.528,40.296 C394.17867,42.3120101 394.504,44.5679875 394.504,47.064 C394.504,49.5600125 394.17867,51.8106566 393.528,53.816 C392.87733,55.8213434 391.93334,57.5386595 390.696,58.968 C389.45866,60.3973405 387.938676,61.4959962 386.136,62.264 C384.333324,63.0320038 382.290678,63.416 380.008,63.416 C377.725322,63.416 375.682676,63.0320038 373.88,62.264 C372.077324,61.4959962 370.552006,60.3973405 369.304,58.968 C368.055994,57.5386595 367.10667,55.8213434 366.456,53.816 C365.80533,51.8106566 365.48,49.5600125 365.48,47.064 C365.48,44.5679875 365.80533,42.3120101 366.456,40.296 C367.10667,38.2799899 368.055994,36.5573405 369.304,35.128 C370.552006,33.6986595 372.077324,32.5946706 373.88,31.816 C375.682676,31.0373294 377.725322,30.648 380.008,30.648 Z M380.008,61.016 C381.906676,61.016 383.565326,60.6906699 384.984,60.04 C386.402674,59.3893301 387.586662,58.4560061 388.536,57.24 C389.485338,56.0239939 390.194664,54.5573419 390.664,52.84 C391.133336,51.1226581 391.368,49.197344 391.368,47.064 C391.368,44.9519894 391.133336,43.0320086 390.664,41.304 C390.194664,39.5759914 389.485338,38.0986728 388.536,36.872 C387.586662,35.6453272 386.402674,34.7013366 384.984,34.04 C383.565326,33.3786634 381.906676,33.048 380.008,33.048 C378.109324,33.048 376.450674,33.3786634 375.032,34.04 C373.613326,34.7013366 372.429338,35.6453272 371.48,36.872 C370.530662,38.0986728 369.816002,39.5759914 369.336,41.304 C368.855998,43.0320086 368.616,44.9519894 368.616,47.064 C368.616,49.197344 368.855998,51.1226581 369.336,52.84 C369.816002,54.5573419 370.530662,56.0239939 371.48,57.24 C372.429338,58.4560061 373.613326,59.3893301 375.032,60.04 C376.450674,60.6906699 378.109324,61.016 380.008,61.016 Z" id="coolops.io" fill="#4A4A4A"></path>
        </g>
    </g>
</svg>
