<?xml version="1.0" standalone="no"?>
<!DOCTYPE svg PUBLIC "-//W3C//DTD SVG 20010904//EN"
 "http://www.w3.org/TR/2001/REC-SVG-20010904/DTD/svg10.dtd">
<svg version="1.0" xmlns="http://www.w3.org/2000/svg"
 width="2000.000000pt" height="2000.000000pt" viewBox="0 0 2000.000000 2000.000000"
 preserveAspectRatio="xMidYMid meet">
<metadata>
Created by potrace 1.11, written by Peter Selinger 2001-2013
</metadata>
<g transform="translate(0.000000,2000.000000) scale(0.100000,-0.100000)"
fill="#000000" stroke="none">
<path d="M9445 19939 c-1947 -107 -3835 -792 -5395 -1960 -407 -305 -706 -564
-1085 -944 -494 -494 -868 -947 -1240 -1505 -1003 -1501 -1564 -3185 -1665
-4999 -13 -236 -13 -811 0 -1056 97 -1806 661 -3502 1665 -5005 372 -558 746
-1011 1240 -1505 494 -494 947 -868 1505 -1240 1501 -1003 3185 -1564 4999
-1665 237 -13 825 -13 1062 0 1814 101 3498 662 4999 1665 558 372 1011 746
1505 1240 494 494 868 947 1240 1505 1004 1503 1568 3199 1665 5005 13 245 13
820 0 1056 -101 1814 -662 3498 -1665 4999 -372 558 -746 1011 -1240 1505
-494 494 -947 868 -1505 1240 -1503 1004 -3199 1568 -5005 1665 -218 11 -859
11 -1080 -1z m1075 -1010 c1673 -93 3293 -662 4660 -1636 2003 -1427 3336
-3611 3674 -6018 64 -456 87 -791 87 -1275 0 -484 -23 -819 -87 -1275 -213
-1519 -831 -2976 -1780 -4200 -604 -779 -1369 -1486 -2177 -2012 -147 -96
-436 -272 -496 -302 l-40 -21 -118 56 c-1570 742 -3121 1217 -4823 1479 -1330
205 -2786 248 -4170 125 -422 -38 -981 -111 -1375 -179 l-170 -30 -136 142
c-653 684 -1138 1365 -1554 2182 -542 1068 -851 2197 -940 3440 -32 437 -19
1092 31 1550 164 1530 713 2979 1601 4225 1242 1744 3058 2984 5121 3499 872
218 1770 301 2692 250z"/>
<path d="M12100 16654 c-439 -60 -857 -236 -1161 -490 -43 -36 -124 -113 -179
-172 l-101 -106 -72 18 c-40 11 -220 59 -402 109 -286 78 -341 90 -411 90 -72
1 -89 -3 -146 -31 -129 -63 -208 -178 -215 -312 -4 -68 13 -155 172 -895 97
-451 178 -829 181 -840 5 -20 0 -20 -628 -20 -627 0 -742 -4 -1163 -41 -793
-69 -1528 -195 -2330 -399 -205 -52 -665 -181 -672 -189 -2 -2 -54 -478 -114
-1057 -61 -580 -113 -1056 -115 -1058 -2 -2 -211 17 -464 44 -253 26 -462 46
-465 44 -6 -6 -327 -3070 -323 -3075 2 -2 209 -25 461 -52 251 -26 459 -51
463 -54 5 -6 -194 -1959 -212 -2079 l-5 -37 168 -90 c1171 -628 2377 -1084
3583 -1356 1892 -425 3809 -417 5802 24 239 53 670 164 928 238 168 48 206 62
208 78 1 10 52 486 112 1057 60 572 110 1041 112 1043 3 2 211 -18 464 -45
252 -27 462 -46 465 -43 5 6 317 2952 322 3047 l2 29 -465 49 c-256 27 -466
50 -466 51 -1 0 47 462 107 1026 60 564 108 1041 109 1062 0 35 -2 37 -87 84
-49 26 -244 127 -435 224 l-348 176 565 624 c371 411 573 642 589 675 90 176
24 397 -146 490 -36 20 -188 66 -462 140 l-410 110 -22 105 c-87 413 -304 789
-635 1104 -399 380 -933 627 -1507 700 -156 20 -505 20 -652 0z m601 -680
c544 -75 1045 -372 1319 -780 66 -99 137 -230 129 -239 -6 -5 -2705 718 -2714
727 -9 9 107 84 211 136 145 73 368 140 534 161 114 15 401 12 521 -5z m-96
-1384 c1260 -337 2294 -616 2298 -620 11 -10 -682 -775 -700 -774 -24 3 -3698
987 -3705 993 -3 3 -56 235 -116 514 -103 482 -108 509 -88 505 12 -3 1052
-281 2311 -618z m-3175 -1700 c817 -27 1530 -119 2300 -296 868 -199 1781
-520 2614 -918 l156 -75 -5 -38 c-3 -21 -141 -1322 -305 -2892 -165 -1570
-303 -2858 -307 -2862 -23 -22 -736 -171 -1113 -233 -689 -114 -1275 -161
-2000 -160 -571 0 -859 16 -1370 75 -1298 150 -2643 544 -3888 1139 l-153 74
6 60 c4 34 140 1336 304 2893 163 1558 300 2835 303 2839 10 10 315 80 598
138 829 169 1580 250 2475 264 50 1 223 -3 385 -8z"/>
<path d="M7940 11094 c-81 -14 -168 -46 -691 -249 -691 -269 -657 -255 -736
-311 -109 -78 -193 -203 -228 -339 -20 -77 -19 -230 1 -309 50 -196 206 -358
399 -418 87 -27 224 -30 306 -5 30 9 252 93 494 187 241 94 444 169 451 166 7
-3 195 -125 418 -271 224 -147 432 -277 464 -290 173 -70 373 -48 532 60 210
143 309 404 248 655 -28 117 -116 255 -205 322 -73 55 -1082 717 -1133 743
-88 45 -241 73 -320 59z"/>
<path d="M12050 10762 c-82 -6 -160 -34 -747 -262 -662 -258 -704 -278 -793
-378 -165 -185 -203 -453 -97 -677 112 -233 366 -369 611 -326 41 7 246 82
530 192 l463 180 399 -262 c219 -144 425 -275 457 -291 275 -137 624 -11 766
277 43 87 61 166 61 267 0 114 -14 176 -61 275 -70 146 -89 162 -682 551 -640
420 -599 394 -670 421 -60 22 -175 38 -237 33z"/>
</g>
</svg>
